<svg width="82" height="82" viewBox="0 0 82 82" fill="none" xmlns="http://www.w3.org/2000/svg">
<path fill-rule="evenodd" clip-rule="evenodd" d="M41.7501 1H40.2501V39.1895L13.246 12.1854L12.1854 13.2461L39.1894 40.2501H1V41.7501H39.1889L12.1854 68.7537L13.246 69.8143L40.2501 42.8103V81H41.7501V42.8108L68.7539 69.8146L69.8146 68.754L42.8107 41.7501H81V40.2501H42.8102L69.8146 13.2458L68.7539 12.1851L41.7501 39.1889V1Z" fill="#F1EBC9"/>
<path d="M40.2501 1V0.15493H39.405V1H40.2501ZM41.7501 1H42.5952V0.15493H41.7501V1ZM40.2501 39.1895L39.6525 39.787L41.0952 41.2297V39.1895H40.2501ZM13.246 12.1854L13.8436 11.5879L13.246 10.9903L12.6485 11.5879L13.246 12.1854ZM12.1854 13.2461L11.5878 12.6485L10.9903 13.2461L11.5878 13.8436L12.1854 13.2461ZM39.1894 40.2501V41.0952H41.2296L39.787 39.6526L39.1894 40.2501ZM1 40.2501V39.4051H0.15493V40.2501H1ZM1 41.7501H0.15493V42.5952H1V41.7501ZM39.1889 41.7501L39.7865 42.3477L41.2291 40.9051H39.1889V41.7501ZM12.1854 68.7537L11.5878 68.1561L10.9903 68.7537L11.5878 69.3512L12.1854 68.7537ZM13.246 69.8143L12.6485 70.4119L13.246 71.0094L13.8436 70.4119L13.246 69.8143ZM40.2501 42.8103H41.0952V40.7701L39.6525 42.2127L40.2501 42.8103ZM40.2501 81H39.405V81.8451H40.2501V81ZM41.7501 81V81.8451H42.5952V81H41.7501ZM41.7501 42.8108L42.3477 42.2133L40.905 40.7706V42.8108H41.7501ZM68.7539 69.8146L68.1564 70.4122L68.7539 71.0097L69.3515 70.4122L68.7539 69.8146ZM69.8146 68.754L70.4121 69.3515L71.0097 68.754L70.4121 68.1564L69.8146 68.754ZM42.8107 41.7501V40.9051H40.7706L42.2132 42.3477L42.8107 41.7501ZM81 41.7501V42.5952H81.8451V41.7501H81ZM81 40.2501H81.8451V39.4051H81V40.2501ZM42.8102 40.2501L42.2127 39.6526L40.77 41.0952H42.8102V40.2501ZM69.8146 13.2458L70.4121 13.8434L71.0097 13.2458L70.4121 12.6482L69.8146 13.2458ZM68.7539 12.1851L69.3515 11.5876L68.7539 10.99L68.1564 11.5876L68.7539 12.1851ZM41.7501 39.1889H40.905V41.2291L42.3477 39.7865L41.7501 39.1889ZM40.2501 1.84507H41.7501V0.15493H40.2501V1.84507ZM41.0952 39.1895V1H39.405V39.1895H41.0952ZM12.6485 12.783L39.6525 39.787L40.8477 38.5919L13.8436 11.5879L12.6485 12.783ZM12.7829 13.8436L13.8436 12.783L12.6485 11.5879L11.5878 12.6485L12.7829 13.8436ZM39.787 39.6526L12.7829 12.6485L11.5878 13.8436L38.5919 40.8477L39.787 39.6526ZM1 41.0952H39.1894V39.4051H1V41.0952ZM1.84507 41.7501V40.2501H0.15493V41.7501H1.84507ZM39.1889 40.9051H1V42.5952H39.1889V40.9051ZM12.7829 69.3512L39.7865 42.3477L38.5913 41.1526L11.5878 68.1561L12.7829 69.3512ZM13.8436 69.2168L12.7829 68.1561L11.5878 69.3512L12.6485 70.4119L13.8436 69.2168ZM39.6525 42.2127L12.6485 69.2168L13.8436 70.4119L40.8477 43.4078L39.6525 42.2127ZM41.0952 81V42.8103H39.405V81H41.0952ZM41.7501 80.1549H40.2501V81.8451H41.7501V80.1549ZM40.905 42.8108V81H42.5952V42.8108H40.905ZM69.3515 69.2171L42.3477 42.2133L41.1525 43.4084L68.1564 70.4122L69.3515 69.2171ZM69.217 68.1564L68.1564 69.2171L69.3515 70.4122L70.4121 69.3515L69.217 68.1564ZM42.2132 42.3477L69.217 69.3515L70.4121 68.1564L43.4083 41.1526L42.2132 42.3477ZM81 40.9051H42.8107V42.5952H81V40.9051ZM80.1549 40.2501V41.7501H81.8451V40.2501H80.1549ZM42.8102 41.0952H81V39.4051H42.8102V41.0952ZM69.217 12.6482L42.2127 39.6526L43.4078 40.8477L70.4121 13.8434L69.217 12.6482ZM68.1564 12.7827L69.217 13.8434L70.4121 12.6482L69.3515 11.5876L68.1564 12.7827ZM42.3477 39.7865L69.3515 12.7827L68.1564 11.5876L41.1525 38.5914L42.3477 39.7865ZM40.905 1V39.1889H42.5952V1H40.905Z" fill="#F1EBC9"/>
</svg>
