<svg width="80" height="80" viewBox="0 0 80 80" fill="none" xmlns="http://www.w3.org/2000/svg">
<path d="M40.883 5.51809L59.5539 11.5846C60.1277 11.7711 60.6278 12.1344 60.9825 12.6225L72.5217 28.5049C72.8763 28.993 73.0674 29.5809 73.0674 30.1843V49.816C73.0674 50.4194 72.8763 51.0072 72.5217 51.4954L60.9825 67.3778C60.6278 67.8659 60.1277 68.2292 59.5539 68.4157L40.883 74.4822C40.3092 74.6686 39.6911 74.6686 39.1172 74.4822L20.4464 68.4157C19.8725 68.2292 19.3725 67.8659 19.0178 67.3777L7.47859 51.4954C7.12394 51.0072 6.93293 50.4194 6.93293 49.816V30.1843C6.93293 29.5809 7.12394 28.993 7.47859 28.5049L19.0178 12.6225C19.3725 12.1344 19.8725 11.7711 20.4464 11.5846L39.1172 5.51809C39.6911 5.33164 40.3092 5.33164 40.883 5.51809Z" stroke="#F1EBC9" stroke-width="3.42857"/>
</svg>
